<svg width="38" height="23" viewBox="0 0 38 23" fill="none" xmlns="http://www.w3.org/2000/svg">
<path d="M36.4811 1.57271C37.4046 3.57186 37.2723 5.70045 36.0851 7.66315H36.0841L25.9614 1.80252V1.802C29.3515 1.11466 33.0281 1.03805 36.4811 1.57271Z" fill="#AD00FF"/>
<path d="M8.23364 11.6757L16.1855 6.31753H16.1864L19.2625 4.24441C21.2181 3.11223 23.5149 2.29809 25.9614 1.802V1.80253L36.0841 7.66316H36.0851C35.2282 9.07958 33.822 10.4094 31.8664 11.5415L28.2856 13.3225L19.0298 17.9263L16.3315 16.364L13.6322 14.8013L10.9329 13.2385L8.23364 11.6757ZM27.0227 10.9081C28.8642 9.84247 28.8642 8.11381 27.0227 7.04819C25.1821 5.98205 22.1963 5.98205 20.3557 7.04819C18.5142 8.11381 18.5142 9.84247 20.3557 10.9081C22.1963 11.9742 25.1821 11.9742 27.0227 10.9081Z" fill="black"/>
<path d="M28.2844 13.323C28.4432 15.7321 26.9338 18.1719 23.7573 20.011C22.7818 20.5752 21.7096 21.0491 20.5698 21.4316L19.0286 17.9268L28.2844 13.323Z" fill="black"/>
<path d="M27.0217 7.04888C28.8632 8.11449 28.8632 9.84314 27.0217 10.9088C25.1811 11.9749 22.1953 11.9749 20.3548 10.9088C18.5133 9.84314 18.5133 8.11449 20.3548 7.04888C22.1953 5.98273 25.1811 5.98273 27.0217 7.04888Z" fill="#AD00FF"/>
<path d="M19.0287 17.9264L15.3841 18.7035C14.3821 18.9175 13.2569 18.7743 12.5023 18.3369L11.8772 17.975L16.3304 16.3641L19.0287 17.9264Z" fill="#AD00FF"/>
<path d="M16.3316 16.3643L11.8785 17.9751H11.8776L10.0142 16.8963L13.6324 14.8015L16.3316 16.3643Z" fill="#AD00FF"/>
<path d="M16.1812 6.31735L8.22934 11.6755L2.17651 10.7837C2.83719 10.1239 3.65573 9.50311 4.63031 8.93834C7.80684 7.09926 12.0191 6.22543 16.1812 6.31735Z" fill="black"/>
<path d="M13.632 14.8021L10.0138 16.8969L8.15039 15.8176L10.9327 13.2394L13.632 14.8021Z" fill="#AD00FF"/>
<path d="M10.9318 13.2393L8.1495 15.8175L7.5235 15.4556C6.76883 15.0181 6.52154 14.3672 6.8902 13.7871L8.23254 11.6765L10.9318 13.2393Z" fill="#AD00FF"/>
<path d="M2.63346 18.6254C2.39994 18.6254 2.16633 18.5738 1.9882 18.4707C1.63186 18.2644 1.63186 17.9299 1.9882 17.7235L3.86254 16.6383C4.21889 16.4321 4.7967 16.4321 5.15314 16.6383C5.50948 16.8446 5.50948 17.1792 5.15314 17.3855L3.2788 18.4707C3.10058 18.5738 2.86706 18.6254 2.63346 18.6254Z" fill="#5E0076"/>
<path d="M0.912555 22.6916C0.678947 22.6916 0.44543 22.6399 0.267212 22.5368C-0.0891316 22.3304 -0.0890403 21.9959 0.267304 21.7896L6.51541 18.1728C6.87176 17.9665 7.44957 17.9665 7.80592 18.1728C8.16226 18.3791 8.16217 18.7136 7.80573 18.9199L1.55762 22.5368C1.37959 22.64 1.14607 22.6916 0.912555 22.6916Z" fill="#5E0076"/>
<path d="M6.6879 22.4185C6.45429 22.4185 6.22087 22.3668 6.04265 22.2637C5.6863 22.0574 5.6863 21.7229 6.04265 21.5165L9.16625 19.7081C9.52259 19.5019 10.1004 19.5019 10.4567 19.7081C10.8131 19.9144 10.8131 20.249 10.4567 20.4553L7.33315 22.2637C7.15502 22.3668 6.92142 22.4185 6.6879 22.4185Z" fill="#5E0076"/>
<path d="M19.0261 18.4549C18.7925 18.4549 18.559 18.4032 18.3808 18.3001L7.58464 12.0496C7.2283 11.8433 7.2283 11.5088 7.58464 11.3024C7.94098 11.0961 8.5188 11.0961 8.87524 11.3024L19.6714 17.553C20.0278 17.7593 20.0278 18.0938 19.6714 18.3002C19.4932 18.4033 19.2596 18.4549 19.0261 18.4549Z" fill="#5E0076"/>
<path d="M23.6858 12.2358C22.1825 12.2358 20.7695 11.8968 19.7068 11.2813C18.6441 10.6663 18.0586 9.84824 18.0586 8.97789C18.0586 8.10754 18.6441 7.28944 19.7071 6.67422C20.7694 6.05894 22.1824 5.71997 23.6857 5.71997C25.189 5.71997 26.6021 6.05894 27.6647 6.67437C28.7274 7.28939 29.3129 8.10749 29.3129 8.97784C29.3129 9.84808 28.7275 10.6661 27.6647 11.2813C27.6646 11.2814 27.6646 11.2813 27.6644 11.2815C26.6019 11.8969 25.1889 12.2358 23.6858 12.2358ZM23.6858 6.77671C22.6702 6.77671 21.7155 7.00568 20.9978 7.42147C20.2792 7.8372 19.8838 8.38992 19.8838 8.97794C19.8838 9.56596 20.2792 10.1187 20.9974 10.5342C21.7155 10.9502 22.6702 11.1792 23.6858 11.1792C24.7015 11.1792 25.6562 10.9502 26.3739 10.5344C26.374 10.5344 26.3741 10.5343 26.3742 10.5342C27.0924 10.1187 27.4879 9.56596 27.4879 8.97794C27.4879 8.38992 27.0924 7.8372 26.3742 7.42168C25.6562 7.00568 24.7015 6.77671 23.6858 6.77671Z" fill="#5E0076"/>
<path d="M8.14695 16.3457C7.98178 16.3457 7.81461 16.3198 7.66422 16.2653C7.23679 16.1107 7.10685 15.7848 7.37385 15.5374L10.1562 12.9592C10.4233 12.7117 10.9863 12.6364 11.4136 12.7911C11.8411 12.9457 11.971 13.2716 11.704 13.519L8.92169 16.0972C8.74858 16.2576 8.45119 16.3457 8.14695 16.3457Z" fill="#5E0076"/>
<path d="M10.0107 17.4251C9.77718 17.4251 9.54367 17.3735 9.36545 17.2704C9.0091 17.064 9.00901 16.7295 9.36536 16.5232L12.9835 14.4284C13.3399 14.2221 13.9177 14.2221 14.2741 14.4284C14.6304 14.6347 14.6305 14.9692 14.2741 15.1755L10.656 17.2703C10.4778 17.3735 10.2442 17.4251 10.0107 17.4251Z" fill="#5E0076"/>
<path d="M11.8756 18.5043C11.5714 18.5043 11.274 18.4163 11.1009 18.2559C10.8339 18.0084 10.9639 17.6825 11.3912 17.5279L15.8444 15.9171C16.2717 15.7623 16.8348 15.8377 17.1019 16.0852C17.3689 16.3327 17.2388 16.6586 16.8115 16.8132L12.3584 18.424C12.2079 18.4784 12.0408 18.5043 11.8756 18.5043Z" fill="#5E0076"/>
<path d="M16.1849 6.84632C15.9743 6.84632 15.7628 6.80437 15.5906 6.71873C15.2084 6.52859 15.1646 6.19506 15.4931 5.9737L18.5692 3.90058C18.8975 3.67932 19.4736 3.65396 19.8561 3.84416C20.2383 4.0343 20.282 4.36782 19.9535 4.58914L16.8774 6.66225C16.697 6.78387 16.4416 6.84632 16.1849 6.84632Z" fill="#5E0076"/>
<path d="M14.4443 19.3293C13.4909 19.3293 12.5533 19.1135 11.8582 18.7106L11.2576 18.3628C11.2491 18.3583 11.2408 18.3537 11.2327 18.3489L6.88046 15.8291C5.8774 15.2477 5.54606 14.3746 6.03554 13.6044L7.37788 11.4937C7.41557 11.4345 7.47114 11.3798 7.54204 11.332L15.4938 5.9738C15.8225 5.75254 16.3984 5.72724 16.7807 5.91738C17.163 6.10757 17.2066 6.4411 16.8782 6.66241L9.03358 11.9482L7.74818 13.9694C7.50344 14.3545 7.66934 14.7913 8.17087 15.082L12.4992 17.588C12.5076 17.5925 12.516 17.5971 12.5241 17.6018L13.1492 17.9637C13.6508 18.2545 14.4045 18.3504 15.0699 18.2084L18.5605 17.464L31.2723 11.1414C31.6547 10.9512 32.2308 10.9766 32.5591 11.1978C32.8876 11.4191 32.8439 11.7527 32.4617 11.9428L19.6249 18.3275C19.5424 18.3685 19.4478 18.4008 19.3457 18.4225L15.701 19.1997C15.2923 19.287 14.8667 19.3293 14.4443 19.3293Z" fill="#5E0076"/>
<path d="M31.8625 12.0704C31.629 12.0704 31.3955 12.0188 31.2173 11.9156C30.8609 11.7093 30.8609 11.3748 31.2173 11.1684C33.0319 10.1179 34.3785 8.88003 35.2199 7.48902C36.2909 5.71852 36.4633 3.83042 35.7251 2.00863C32.5787 1.58127 29.3172 1.68112 26.2591 2.3011C23.8565 2.78826 21.7183 3.56795 19.9038 4.61846C19.5475 4.82472 18.9697 4.82477 18.6132 4.61846C18.2569 4.41215 18.2569 4.07762 18.6132 3.87126C20.6231 2.7077 22.9925 1.84384 25.6558 1.30385C29.2291 0.579476 33.0526 0.496055 36.713 1.06289C37.0282 1.1117 37.2744 1.25424 37.3587 1.43672C38.3377 3.55601 38.1938 5.76966 36.9423 7.83834C36.0096 9.38024 34.5176 10.752 32.5078 11.9156C32.3297 12.0188 32.0961 12.0704 31.8625 12.0704Z" fill="#5E0076"/>
<path d="M36.0794 8.19295C35.8458 8.19295 35.6124 8.14133 35.4342 8.0382L25.3114 2.17753C24.9551 1.97122 24.9551 1.63669 25.3114 1.43033C25.6681 1.22402 26.2457 1.22412 26.602 1.43033L36.7248 7.291C37.0811 7.49731 37.0811 7.83184 36.7248 8.0382C36.5465 8.14133 36.3129 8.19295 36.0794 8.19295Z" fill="#5E0076"/>
<path d="M8.23287 12.2041C8.15695 12.2041 8.08048 12.1986 8.00684 12.1878L1.95401 11.296C1.67688 11.2551 1.44874 11.1414 1.33796 10.9888C1.22709 10.8362 1.24625 10.6623 1.38961 10.519C2.09938 9.81013 2.97331 9.1528 3.98732 8.5652C7.20682 6.70125 11.6634 5.68878 16.2142 5.78958C16.7041 5.79888 17.0967 6.03171 17.0967 6.31759C17.0967 6.60932 16.6886 6.8459 16.1846 6.8459H16.1837C16.1721 6.8459 16.1605 6.8458 16.1489 6.84553C12.1029 6.75577 8.14007 7.65518 5.27818 9.31214C4.66825 9.66553 4.11544 10.0472 3.62641 10.452L8.43819 11.161C8.8429 11.2151 9.14495 11.425 9.14495 11.6757C9.14495 11.9675 8.73686 12.2041 8.23287 12.2041Z" fill="#5E0076"/>
<path d="M20.5684 21.9591C20.4484 21.9591 20.3281 21.9454 20.2147 21.9177C19.951 21.8536 19.7546 21.7215 19.6841 21.5611L18.1427 18.0563C18.0183 17.7735 18.3135 17.4859 18.8019 17.4139C19.29 17.3418 19.787 17.5128 19.9114 17.7955L21.1415 20.5929C21.8407 20.3098 22.5001 19.9896 23.1108 19.6364C25.9725 17.9796 27.5254 15.6854 27.3709 13.3423C27.3517 13.0507 27.7444 12.8053 28.2479 12.7942C28.7506 12.7819 29.1754 13.0104 29.1946 13.3019C29.3683 15.9381 27.6212 18.5193 24.4009 20.3837C23.3858 20.9708 22.2504 21.4769 21.0258 21.8878C20.8851 21.9351 20.727 21.9591 20.5684 21.9591Z" fill="#5E0076"/>
</svg>
